<svg width="141" height="80" viewBox="0 0 141 80" fill="none" xmlns="http://www.w3.org/2000/svg">
<path d="M76.2882 4.07426C72.5098 12.0144 71.3039 17.388 71.3843 26.3707C71.3843 35.7545 73.1529 43.7748 75.4843 45.1382C76.2882 45.6194 80.4686 47.9453 84.8098 50.2712L92.7686 54.522L89.3922 49.5494C85.051 43.2133 81.1118 34.7118 79.0216 27.1727C77.1726 20.5961 76.6902 8.00421 78.1373 3.19202C79.3431 -1.05873 78.5392 -0.657719 76.2882 4.07426Z" fill="white"/>
<path d="M68.5706 23.3228C66.9628 31.8243 66.7216 34.5512 67.2843 40.005C67.8471 45.539 67.8471 45.6192 70.0177 45.138C71.1432 44.8172 72.2686 44.4964 72.4294 44.336C72.5098 44.2558 72.0275 42.1705 71.2235 39.8446C70.1784 36.8771 69.6961 33.1878 69.6961 27.4132C69.6961 22.8416 69.6157 19.1522 69.5353 19.1522C69.4549 19.1522 69.053 21.0771 68.5706 23.3228Z" fill="white"/>
<path d="M2.97059 46.5817C0.799998 47.7847 0.15686 48.8274 0.15686 51.3137C0.15686 53.8 1.52353 55.2436 3.93529 55.2436C5.78431 55.2436 5.78431 55.1634 4.49804 53.1584C3.45294 51.6345 3.37255 50.9127 4.09608 50.1908C5.9451 48.3462 17.8431 49.87 17.8431 51.9553C17.8431 52.3563 17.0392 52.8375 16.0745 52.9979C13.502 53.399 13.2608 55.2436 15.7529 55.2436C17.8431 55.2436 17.8431 55.3238 17.8431 61.5797C17.8431 73.7705 20.898 76.1766 21.2196 64.2264C21.4608 57.0883 21.6216 56.4467 23.0686 56.4467C24.1137 56.4467 24.7569 55.8051 24.9176 54.7624C25.1588 53.3188 24.8373 53.0782 23.149 53.399C21.6216 53.7198 21.0588 53.4792 21.0588 52.5969C21.0588 51.7147 22.1843 51.1533 24.6765 50.7523C26.6863 50.5117 28.5353 49.9502 28.7765 49.5492C29.0176 49.1482 28.1333 49.068 26.8471 49.3086C25.4804 49.6294 21.3804 48.9076 16.8784 47.7045C8.51764 45.4589 5.46274 45.2183 2.97059 46.5817Z" fill="white"/>
<path d="M55.6275 51.7148C55.6275 52.4366 54.9039 53.1584 54.0196 53.399C51.9294 53.9604 51.9294 55.2437 54.0196 55.2437C55.8686 55.2437 56.351 56.7676 56.5922 64.3868C56.7529 68.3168 57.1549 70.0813 57.9588 70.3219C58.602 70.5625 58.8431 70.3219 58.5216 69.8406C58.2804 69.4396 58.4412 66.1513 59.0039 62.6224L59.8882 56.1259L65.5961 55.8853C70.902 55.6447 71.3039 55.4843 71.5451 53.7198C71.7863 52.196 71.5451 51.9554 70.5 52.3564C69.7765 52.597 67.2039 53.0782 64.8726 53.3188C61.0941 53.8 60.5314 53.6396 59.7275 52.1158C58.602 50.1107 55.6275 49.7899 55.6275 51.7148Z" fill="white"/>
<path d="M103.059 51.7147C103.059 52.4366 102.335 53.1584 101.451 53.399C99.2 53.9604 99.4412 55.2437 101.853 55.2437C103.782 55.2437 103.782 55.4041 104.024 62.6223C104.345 72.5675 105.873 72.9685 106.596 63.3442L107.159 56.1259L112.947 55.8853C118.333 55.6447 118.735 55.4843 118.976 53.7198C119.218 52.2762 118.976 51.9553 118.012 52.2762C117.288 52.597 114.876 52.998 112.706 53.3188C109.088 53.8 108.445 53.6396 107.4 52.1157C105.953 50.1107 103.059 49.8701 103.059 51.7147Z" fill="white"/>
<path d="M79.2628 58.3716C79.102 63.8254 76.9314 70.402 75.6451 69.1188C75.3235 68.798 74.6804 66.6325 74.3588 64.467C73.7961 61.2589 73.3137 60.3766 71.9471 60.2162L70.1784 59.9756L71.7059 64.9482C72.5902 67.6751 73.5549 70.2416 73.9569 70.6426C76.449 73.1289 80.3882 67.6751 82.1569 59.1736C83.202 54.2812 82.8804 52.8376 80.7098 52.8376C79.5843 52.8376 79.3431 53.7198 79.2628 58.3716Z" fill="white"/>
<path d="M23.7118 61.8204C23.3098 69.4397 24.9176 72.327 28.3745 70.4021C29.5804 69.8407 30.3039 69.8407 31.1078 70.4823C31.9118 71.2041 32.2333 70.4021 32.7157 66.5524C33.2784 61.5798 32.9569 60.0559 31.2686 60.0559C30.7059 60.0559 30.3039 61.4194 30.2235 63.6651C30.1431 67.3544 28.8569 69.6803 26.9274 69.6803C26.0431 69.6803 25.802 68.5574 26.0431 64.3067C26.2039 59.9757 26.0431 58.8529 25.0784 58.6925C24.1137 58.4519 23.7922 59.2539 23.7118 61.8204Z" fill="white"/>
<path d="M45.498 64.6274C45.5784 68.7178 45.9 70.8833 46.6235 71.0437C47.1863 71.2843 47.5882 70.6426 47.5882 69.5198L47.6686 67.6751L49.2765 69.6802C53.8588 75.2142 54.0196 75.3746 56.6726 75.134C58.6824 74.9736 59.3255 74.4924 59.4863 72.8883C59.7275 71.2843 59.6471 71.1239 58.602 72.0061C57.5569 72.8081 56.9137 72.7279 54.9843 71.7655C53.7784 71.1239 52.1706 70.001 51.6079 69.2792C50.6431 68.1564 50.8039 67.6751 52.7333 65.9107C55.8686 63.1036 55.3059 60.4569 51.6882 60.3767C50.1608 60.3767 48.7941 59.9756 48.5529 59.4142C48.3922 58.8528 47.5882 58.4518 46.7843 58.4518C45.5784 58.4518 45.4177 59.1736 45.498 64.6274ZM52.251 63.7452C51.9294 65.3492 48.7137 67.6751 48.151 66.7127C47.9098 66.3919 48.0706 65.269 48.4726 64.2264C49.2765 62.1411 52.6529 61.6599 52.251 63.7452Z" fill="white"/>
<path d="M108.686 63.9857C108.686 70.2416 109.651 71.7654 112.947 70.5624C114.233 70.0812 115.198 70.0812 115.841 70.7228C117.127 72.006 117.288 71.4446 117.61 65.67C117.851 61.2588 117.69 60.4568 116.565 60.2162C115.359 59.9756 115.118 60.537 115.118 63.2639C115.118 67.1137 113.992 69.6802 112.224 69.6802C110.535 69.6802 110.214 68.1563 110.937 63.9055C111.42 61.4192 111.42 59.8954 110.857 59.334C109.088 57.5695 108.686 58.5319 108.686 63.9857Z" fill="white"/>
<path d="M119.941 64.3868C119.941 67.6751 120.343 70.6427 120.745 70.8833C121.227 71.1239 121.549 70.8031 121.549 70.1614C121.549 67.6751 122.996 68.2366 125.408 71.6853C127.578 74.733 128.382 75.2944 130.714 75.2944C132.482 75.2944 133.608 74.8132 133.929 74.0112C134.653 72.1665 134.653 72.1665 132 72.2467C130.312 72.3269 128.784 71.6051 127.176 70.0812L124.845 67.8355L127.257 65.5899C130.553 62.5421 130.151 60.4569 126.131 60.4569C124.282 60.4569 123.157 60.0559 123.157 59.4142C123.157 58.933 122.433 58.4518 121.549 58.4518C120.102 58.4518 119.941 59.0132 119.941 64.3868ZM126.373 63.9056C126.373 65.2691 123.398 67.7553 122.594 66.9533C122.353 66.7127 122.353 65.5899 122.674 64.467C123.237 62.1411 126.373 61.5797 126.373 63.9056Z" fill="white"/>
<path d="M98.2353 60.6173C96.8686 61.5797 96.2255 61.66 95.9843 61.0183C95.8235 60.4569 95.1 60.0559 94.3765 60.0559C93.251 60.0559 93.0098 60.9381 93.0098 65.4295C93.0098 68.9584 93.3314 70.8833 94.0549 71.0437C94.698 71.2843 95.0196 70.5625 95.0196 68.7178C95.0196 65.9909 96.8686 62.462 98.3157 62.462C98.7176 62.462 99.0392 64.3067 99.0392 66.4721C99.0392 71.1239 100.486 74.9737 102.978 77.2995C105.229 79.2244 114.475 79.9462 117.449 78.3422C119.941 76.9787 121.147 75.0539 120.504 73.2894C120.022 72.0863 119.7 72.1666 117.449 74.0112C115.439 75.6955 114.153 76.0965 110.375 76.0965C106.435 76.0965 105.471 75.7757 103.782 74.0112C102.094 72.2468 101.853 71.2041 101.853 65.9107C101.853 62.462 101.531 59.6549 101.049 59.4945C100.567 59.3341 99.3608 59.8153 98.2353 60.6173Z" fill="white"/>
<path d="M36.0118 61.8204C34.5647 63.9057 34.3235 66.7128 35.5294 68.9585C36.6549 70.8834 41.3177 71.0438 42.8451 69.1189C43.8902 67.9159 43.8098 67.9159 42.3628 68.7179C41.2373 69.2793 40.2726 69.2793 39.3079 68.7179C37.9412 67.9961 38.102 67.7555 40.5137 66.6326C42.6039 65.5098 43.1667 64.7879 43.1667 62.8631C43.1667 60.6976 42.9255 60.457 40.1922 60.2164C37.9412 60.056 36.9765 60.3768 36.0118 61.8204ZM41.1569 63.2641C41.1569 64.0661 40.4333 65.189 39.549 65.6702C38.102 66.4722 37.9412 66.3118 37.9412 64.0661C37.9412 62.2214 38.2628 61.66 39.549 61.66C40.5941 61.66 41.1569 62.2214 41.1569 63.2641Z" fill="white"/>
<path d="M61.7372 61.339C58.5215 64.5472 60.049 70.4822 63.9882 70.4822C66.5608 70.4822 68.4902 69.6801 68.4902 68.7177C68.4902 68.1563 68.0882 68.2365 67.3647 68.7979C66.2392 69.7604 63.6666 69.1989 63.6666 67.9959C63.6666 67.5949 64.551 67.1136 65.6765 66.7928C68.4098 66.1512 69.5353 64.4669 68.9725 62.0609C68.5706 60.3766 68.0078 60.0558 65.7568 60.0558C64.2294 60.0558 62.3804 60.6172 61.7372 61.339ZM66.3196 63.7451C66.0784 64.3867 65.1941 65.269 64.3902 65.7502C63.1039 66.3918 62.8627 66.2314 62.8627 64.6274C62.8627 62.1411 64.3902 60.6172 65.7568 61.74C66.3196 62.2213 66.5608 63.1035 66.3196 63.7451Z" fill="white"/>
<path d="M83.4431 61.8204C81.9961 63.9057 81.8353 66.7128 82.9608 68.9585C84.0863 70.8834 88.749 71.0438 90.2765 69.1189C91.3216 67.9159 91.2412 67.9159 89.7137 68.7179C88.4274 69.4397 87.7039 69.3595 86.498 68.4773C85.051 67.4346 85.051 67.3544 86.4176 67.2742C87.2216 67.2742 88.749 66.392 89.8745 65.2692C91.4823 63.6651 91.7235 63.0235 91 61.66C89.7941 59.3341 85.051 59.4945 83.4431 61.8204ZM88.5882 63.2641C88.5882 64.1463 87.8647 65.189 86.9804 65.6702C85.5333 66.4722 85.3725 66.3118 85.3725 64.1463C85.3725 61.9808 86.5784 60.6174 88.0255 61.4194C88.347 61.5798 88.5882 62.4621 88.5882 63.2641Z" fill="white"/>
<path d="M132.563 60.6173C131.357 61.7402 132.08 62.462 134.412 62.462C137.547 62.462 137.467 63.5046 134.251 64.9483C132.241 65.7503 131.598 66.5524 131.598 68.0762C131.598 70.4021 134.492 71.2843 136.582 69.6001C137.547 68.7178 137.949 68.798 138.512 69.9209C139.959 72.4874 140.522 71.2843 140.039 66.392C139.718 63.4244 139.074 61.259 138.431 60.8579C137.065 59.9757 133.286 59.8153 132.563 60.6173ZM137.386 67.595C136.743 69.1189 134.412 69.2793 134.412 67.8356C134.412 67.2742 134.814 66.392 135.376 65.8305C136.582 64.6275 138.029 65.9107 137.386 67.595Z" fill="white"/>
</svg>
