<svg width="157" height="108" viewBox="0 0 157 108" fill="none" xmlns="http://www.w3.org/2000/svg">
<path d="M82.9329 21.5188C80.0392 27.5995 79.1157 31.7147 79.1772 38.5939C79.1772 45.7802 80.5317 51.9223 82.3172 52.9665C82.9329 53.335 86.1345 55.1163 89.4592 56.8975L95.5545 60.1528L92.9686 56.3447C89.6439 51.4924 86.627 44.9817 85.0263 39.2081C83.6102 34.1716 83.2408 24.5284 84.349 20.8432C85.2725 17.5878 84.6568 17.8949 82.9329 21.5188Z" fill="#045488"/>
<path d="M77.0224 36.2599C75.791 42.7705 75.6063 44.8589 76.0373 49.0355C76.4682 53.2736 76.4682 53.335 78.1306 52.9665C78.9925 52.7208 79.8545 52.4751 79.9776 52.3523C80.0392 52.2908 79.6698 50.6939 79.0541 48.9127C78.2537 46.6401 77.8843 43.8147 77.8843 39.3924C77.8843 35.8914 77.8227 33.066 77.7612 33.066C77.6996 33.066 77.3918 34.5401 77.0224 36.2599Z" fill="#045488"/>
<path d="M26.7823 54.0721C25.12 54.9934 24.6274 55.7919 24.6274 57.6959C24.6274 59.6 25.6741 60.7056 27.5212 60.7056C28.9372 60.7056 28.9372 60.6442 27.9521 59.1086C27.1518 57.9416 27.0902 57.3888 27.6443 56.836C29.0604 55.4233 38.1725 56.5904 38.1725 58.1873C38.1725 58.4944 37.5569 58.8629 36.818 58.9858C34.8478 59.2929 34.6631 60.7056 36.5718 60.7056C38.1725 60.7056 38.1725 60.767 38.1725 65.5579C38.1725 74.8939 40.5121 76.7365 40.7584 67.5848C40.9431 62.1183 41.0663 61.6269 42.1745 61.6269C42.9749 61.6269 43.4674 61.1355 43.5906 60.3371C43.7753 59.2315 43.529 59.0472 42.2361 59.2929C41.0663 59.5386 40.6353 59.3543 40.6353 58.6787C40.6353 58.003 41.4972 57.5731 43.4059 57.266C44.9451 57.0817 46.3612 56.6518 46.5459 56.3447C46.7306 56.0376 46.0533 55.9761 45.0682 56.1604C44.0216 56.4061 40.8816 55.8533 37.4337 54.932C31.0306 53.2122 28.691 53.0279 26.7823 54.0721Z" fill="#045488"/>
<path d="M67.1098 58.003C67.1098 58.5558 66.5557 59.1086 65.8784 59.2929C64.2776 59.7228 64.2776 60.7056 65.8784 60.7056C67.2945 60.7056 67.6639 61.8726 67.8486 67.7076C67.9717 70.7173 68.2796 72.0685 68.8953 72.2528C69.3878 72.437 69.5725 72.2528 69.3263 71.8843C69.1416 71.5772 69.2647 69.0589 69.6957 66.3563L70.3729 61.3812L74.7443 61.1969C78.8078 61.0127 79.1157 60.8898 79.3004 59.5386C79.4851 58.3716 79.3004 58.1873 78.5 58.4944C77.9459 58.6787 75.9757 59.0472 74.1902 59.2315C71.2965 59.6 70.8655 59.4772 70.2498 58.3101C69.3878 56.7746 67.1098 56.5289 67.1098 58.003Z" fill="#045488"/>
<path d="M103.435 58.003C103.435 58.5558 102.881 59.1086 102.204 59.2929C100.48 59.7228 100.665 60.7056 102.512 60.7056C103.989 60.7056 103.989 60.8284 104.174 66.3563C104.42 73.9726 105.59 74.2797 106.144 66.9091L106.575 61.3812L111.008 61.197C115.133 61.0127 115.441 60.8898 115.626 59.5386C115.811 58.433 115.626 58.1873 114.887 58.433C114.333 58.6787 112.486 58.9858 110.824 59.2315C108.053 59.6 107.56 59.4772 106.76 58.3102C105.652 56.7746 103.435 56.5904 103.435 58.003Z" fill="#045488"/>
<path d="M85.211 63.101C85.0878 67.2777 83.4255 72.3142 82.4404 71.3315C82.1941 71.0858 81.7016 69.4274 81.4553 67.769C81.0243 65.3122 80.6549 64.6366 79.6082 64.5137L78.2537 64.3294L79.4235 68.1376C80.1008 70.2259 80.8396 72.1914 81.1474 72.4985C83.0561 74.4025 86.0729 70.2259 87.4274 63.7152C88.2278 59.9685 87.9816 58.8629 86.3192 58.8629C85.4573 58.8629 85.2725 59.5386 85.211 63.101Z" fill="#045488"/>
<path d="M42.6671 65.7421C42.3592 71.5771 43.5906 73.7883 46.238 72.3142C47.1616 71.8843 47.7157 71.8843 48.3314 72.3756C48.9471 72.9284 49.1933 72.3142 49.5627 69.366C49.9937 65.5579 49.7475 64.3909 48.4545 64.3909C48.0235 64.3909 47.7157 65.435 47.6541 67.1548C47.5925 69.9802 46.6075 71.7614 45.1298 71.7614C44.4525 71.7614 44.2678 70.9015 44.4525 67.6462C44.5757 64.3294 44.4525 63.4695 43.7137 63.3467C42.9749 63.1624 42.7286 63.7766 42.6671 65.7421Z" fill="#045488"/>
<path d="M59.3522 67.8919C59.4137 71.0244 59.66 72.6828 60.2141 72.8056C60.6451 72.9899 60.9529 72.4985 60.9529 71.6386L61.0145 70.2259L62.2459 71.7614C65.7553 75.9995 65.8784 76.1223 67.9102 75.9381C69.4494 75.8152 69.942 75.4467 70.0651 74.2183C70.2498 72.9899 70.1882 72.867 69.3878 73.5427C68.5875 74.1569 68.0949 74.0954 66.6173 73.3584C65.6937 72.867 64.4624 72.0071 64.0314 71.4543C63.2926 70.5944 63.4157 70.2259 64.8933 68.8746C67.2945 66.7249 66.8635 64.698 64.0929 64.6366C62.9231 64.6366 61.8765 64.3295 61.6918 63.8995C61.5686 63.4696 60.9529 63.1624 60.3373 63.1624C59.4137 63.1624 59.2906 63.7152 59.3522 67.8919ZM64.5239 67.2163C64.2776 68.4447 61.8149 70.2259 61.3839 69.4888C61.1992 69.2432 61.3224 68.3833 61.6302 67.5848C62.2459 65.9878 64.8318 65.6193 64.5239 67.2163Z" fill="#045488"/>
<path d="M107.745 67.4005C107.745 72.1914 108.484 73.3584 111.008 72.4371C111.993 72.0685 112.732 72.0685 113.225 72.5599C114.21 73.5426 114.333 73.1127 114.579 68.6904C114.764 65.3122 114.641 64.698 113.779 64.5137C112.855 64.3294 112.671 64.7594 112.671 66.8477C112.671 69.7959 111.809 71.7614 110.454 71.7614C109.161 71.7614 108.915 70.5944 109.469 67.3391C109.838 65.435 109.838 64.268 109.407 63.8381C108.053 62.4868 107.745 63.2239 107.745 67.4005Z" fill="#045488"/>
<path d="M116.365 67.7076C116.365 70.2259 116.673 72.4985 116.98 72.6827C117.35 72.867 117.596 72.6213 117.596 72.1299C117.596 70.2259 118.704 70.6558 120.551 73.297C122.214 75.631 122.829 76.0609 124.615 76.0609C125.969 76.0609 126.831 75.6924 127.078 75.0782C127.632 73.6655 127.632 73.6655 125.6 73.7269C124.307 73.7883 123.137 73.2355 121.906 72.0685L120.12 70.3487L121.967 68.6289C124.492 66.2949 124.184 64.698 121.105 64.698C119.689 64.698 118.827 64.3909 118.827 63.8995C118.827 63.531 118.273 63.1624 117.596 63.1624C116.488 63.1624 116.365 63.5924 116.365 67.7076ZM121.29 67.3391C121.29 68.3832 119.012 70.2873 118.396 69.6731C118.212 69.4888 118.212 68.6289 118.458 67.769C118.889 65.9878 121.29 65.5579 121.29 67.3391Z" fill="#045488"/>
<path d="M99.7412 64.8208C98.6945 65.5579 98.2019 65.6193 98.0172 65.1279C97.8941 64.698 97.34 64.3909 96.7859 64.3909C95.9239 64.3909 95.7392 65.0665 95.7392 68.5061C95.7392 71.2086 95.9855 72.6827 96.5396 72.8056C97.0321 72.9898 97.2784 72.4371 97.2784 71.0244C97.2784 68.936 98.6945 66.2335 99.8027 66.2335C100.111 66.2335 100.357 67.6462 100.357 69.3046C100.357 72.867 101.465 75.8152 103.374 77.5964C105.098 79.0706 112.178 79.6234 114.456 78.3949C116.365 77.3508 117.288 75.8767 116.796 74.5254C116.426 73.6041 116.18 73.6655 114.456 75.0782C112.917 76.368 111.932 76.6751 109.038 76.6751C106.021 76.6751 105.282 76.4294 103.989 75.0782C102.696 73.7269 102.512 72.9284 102.512 68.8746C102.512 66.2335 102.265 64.0838 101.896 63.9609C101.527 63.8381 100.603 64.2066 99.7412 64.8208Z" fill="#045488"/>
<path d="M52.087 65.7421C50.9788 67.3391 50.7941 69.4888 51.7176 71.2086C52.5796 72.6827 56.1506 72.8056 57.3204 71.3315C58.1208 70.4101 58.0592 70.4101 56.951 71.0243C56.089 71.4543 55.3502 71.4543 54.6114 71.0243C53.5647 70.4716 53.6878 70.2873 55.5349 69.4274C57.1357 68.5675 57.5666 68.0147 57.5666 66.5406C57.5666 64.8822 57.3819 64.6979 55.2886 64.5137C53.5647 64.3908 52.8259 64.6365 52.087 65.7421ZM56.0274 66.8477C56.0274 67.4619 55.4733 68.3218 54.7961 68.6903C53.6878 69.3045 53.5647 69.1817 53.5647 67.4619C53.5647 66.0492 53.811 65.6193 54.7961 65.6193C55.5965 65.6193 56.0274 66.0492 56.0274 66.8477Z" fill="#045488"/>
<path d="M71.789 65.3736C69.3263 67.8305 70.4961 72.3756 73.5129 72.3756C75.4831 72.3756 76.9608 71.7614 76.9608 71.0244C76.9608 70.5944 76.6529 70.6558 76.0988 71.0858C75.2369 71.8228 73.2667 71.3929 73.2667 70.4716C73.2667 70.1645 73.9439 69.7959 74.8059 69.5503C76.8992 69.0589 77.7612 67.769 77.3302 65.9264C77.0224 64.6366 76.5914 64.3909 74.8674 64.3909C73.6976 64.3909 72.2816 64.8208 71.789 65.3736ZM75.2984 67.2162C75.1137 67.7076 74.4365 68.3833 73.8208 68.7518C72.8357 69.2432 72.651 69.1203 72.651 67.8919C72.651 65.9878 73.8208 64.8208 74.8674 65.6807C75.2984 66.0492 75.4831 66.7249 75.2984 67.2162Z" fill="#045488"/>
<path d="M88.4126 65.7421C87.3043 67.3391 87.1812 69.4888 88.0431 71.2086C88.9051 72.6827 92.4761 72.8056 93.6459 71.3315C94.4463 70.4101 94.3847 70.4101 93.2149 71.0243C92.2298 71.5771 91.6757 71.5157 90.7522 70.8401C89.6439 70.0416 89.6439 69.9802 90.6906 69.9188C91.3063 69.9188 92.4761 69.2431 93.338 68.3832C94.5694 67.1548 94.7541 66.6634 94.2 65.6193C93.2765 63.8381 89.6439 63.9609 88.4126 65.7421ZM92.3529 66.8477C92.3529 67.5233 91.7988 68.3218 91.1216 68.6903C90.0133 69.3045 89.8902 69.1817 89.8902 67.5233C89.8902 65.865 90.8137 64.8208 91.922 65.435C92.1682 65.5578 92.3529 66.2335 92.3529 66.8477Z" fill="#045488"/>
<path d="M126.031 64.8208C125.107 65.6807 125.662 66.2335 127.447 66.2335C129.848 66.2335 129.787 67.032 127.324 68.1376C125.785 68.7518 125.292 69.366 125.292 70.533C125.292 72.3142 127.509 72.9899 129.109 71.7C129.848 71.0244 130.156 71.0858 130.587 71.9457C131.695 73.9112 132.126 72.9899 131.757 69.2432C131.511 66.9706 131.018 65.3122 130.525 65.0051C129.479 64.3295 126.585 64.2066 126.031 64.8208ZM129.725 70.1645C129.233 71.3315 127.447 71.4543 127.447 70.3487C127.447 69.9188 127.755 69.2432 128.186 68.8132C129.109 67.8919 130.218 68.8746 129.725 70.1645Z" fill="#045488"/>
</svg>
